<?xml version="1.0" encoding="utf-8"?>
<!-- Generator: Adobe Illustrator 20.1.0, SVG Export Plug-In . SVG Version: 6.00 Build 0)  -->
<svg version="1.1" id="Layer_1" xmlns="http://www.w3.org/2000/svg" xmlns:xlink="http://www.w3.org/1999/xlink" x="0px" y="0px"
	 viewBox="0 0 1600 1587" style="enable-background:new 0 0 1600 1587;" xml:space="preserve">
<style type="text/css">
	.st0{fill:#E53321;}
	.st1{fill:url(#SVGID_1_);}
	.st2{fill:#2B2A29;}
	.st3{fill:#FEFEFE;}
</style>
<g id="layer102">
	<path class="st0" d="M744.5,1585.4c-74.6-4.8-159.5-23.3-228-49.7c-21.6-8.3-28-11-44.7-18.6c-76.9-34.9-143.6-78-205.3-133
		c-14.8-13.2-46.9-45-59.6-59.1c-48.3-53.3-90.5-115.1-122.3-178.7c-11.6-23.3-27.1-58.7-33-75.4c-0.8-2.4-2.9-8.2-4.5-12.9
		c-1.7-4.7-3.1-8.8-3.1-9.3c0-0.4,2.4,0.5,5.3,1.9c15.2,7.8,30.5,10.3,50.9,8.6c30.3-2.6,52.5-9.4,91.8-28.2
		c22.1-10.6,40.9-17.4,66-23.9c74.9-19.4,182.4-29.6,284.5-27c53.2,1.4,93.3,5.4,124.8,12.5c6.5,1.5,6.7,1.6,6.7,4.7
		c0,4,4.7,13.9,9,19.2c6.6,8,9,12.7,9,17.2c0,5.5-2.2,8.9-6.6,10.3c-6.2,2.1-13.5-1.4-16.9-8.1c-1.9-3.6-1.9-12.5,0-18
		c1.8-5.1,1.4-6.9-1.8-6.9c-5.9,0-11.1,9.8-11,20.5c0.1,16.1,9,25.5,24,25.5c14.9-0.1,25.3-9.5,25.3-22.8c0-6.8-2.4-12-9.5-21.1
		c-8.4-10.8-10.2-17.9-6.4-25.8c3.8-7.9,16.4-16.3,24.4-16.3c11.9,0,6.9,12.9-7,17.9c-8.5,3-9,3.4-9.3,7.5c-0.3,3.1,0,3.7,2.2,4.5
		c3.1,1.2,8.2-0.1,15.7-4.1c11.3-5.9,18-15.3,18.1-25.1c0.1-9.7-3.5-12.7-15.4-12.7c-15,0.1-31.5,9.2-40.8,22.7l-1.5,2.1l-11-2.4
		c-63.4-13.7-178.5-16.2-281.5-5.8c-48.2,4.8-89.3,11.6-124,20.4c-6.3,1.7-12.6,3.3-14,3.6c-1.6,0.4-0.2-1.1,4-4.2
		c47.7-35.2,92.8-82.4,123.1-128.8l7.8-11.9l0.6,3.9c4.9,30.2,11.8,40.8,31.3,47.5c10.5,3.6,16.7,3.6,42.4-0.1
		c28.8-4.2,57-36.3,73.6-84.2c8-22.7,18.7-62,22.8-82.8c1-5.2,2.2-10,2.6-10.6c0.4-0.6,3-2.5,5.7-4.1l4.9-3.1l-1.3,4.7
		c-0.7,2.5-5.1,17.9-9.8,34.1C538,810.5,535,825.1,535,844.9c0,19.4,4.7,32.3,14.2,38.7c2.4,1.6,5.7,4.5,7.4,6.4
		c9.1,10.2,29,14.6,48.3,10.5c29.4-6.2,55.3-26.7,78.3-62.2c4-6.1,7.6-11.2,8-11.2c0.4-0.1,2.6,1.9,4.9,4.4
		c17.5,18.7,46.7,13.9,73.7-11.9c4.1-3.9,4.4-4,5.4-2.1c1.2,2.1,9.7,10.7,19.1,19.1c6.4,5.7,15.4,10.5,23.7,12.5
		c7.6,1.9,24.9,1.6,32.9-0.5c23.3-6.3,49.4-28.7,73.6-63.2c8.5-12.1,19.5-30.3,24.6-40.6c1.8-3.8,3.6-6.8,3.9-6.8s0.3,5.1,0.2,11.4
		c-0.4,13.8,1.5,25.2,5.7,34.3c3.3,7,12.5,17.4,17.1,19.3c1.7,0.7,2.8,1.6,2.5,2c-0.7,1.1,7.2,7.3,13.2,10.4c12.6,6.3,26.8,7,43.9,2
		c10-2.8,25.2-9.8,36.4-16.7l7.5-4.5l1,3.1c0.9,3,1.3,3.2,5.7,3.2c2.5,0,4.4,0.3,4.2,0.6c-0.8,1.4,1.9,8,3.9,9.4
		c5.3,3.7,14.2,1.1,26.2-7.7c6-4.4,6.1-4.7,15-23.4c27.7-58.6,40.6-80.2,55.7-93.5l6.4-5.7l-7.6,15.3c-4.2,8.3-9.6,21-12,28.1
		c-3.6,11-4.3,14.5-4.8,23.6c-0.4,8.4-0.1,11.8,1.2,15.9c2.3,6.9,6.5,12.8,11.4,16.2c2.2,1.6,6.1,4.8,8.7,7.4
		c13.2,12.6,30.3,11.8,49.6-2.3l4.6-3.4l0.6,7.3c1,13.1,5.8,23.1,13.4,27.8c2.1,1.3,5.1,3.8,6.7,5.7c1.6,1.8,5.2,4.5,8,6
		c4.8,2.5,5.9,2.7,18.1,2.6c12.1,0,13.6-0.2,22-3.3c18.3-6.7,34.9-16.8,55.5-33.9c21.5-17.8,43.4-40.6,63.8-66.2
		c6.3-8,11.8-14.9,12.2-15.3c0.9-1,4.1,0.2,3.5,1.3c-0.3,0.5,0.3,1.5,1.4,2.2c1.9,1.3,1.7,1.7-4.3,9.4
		c-25.1,31.6-46.9,67.9-54.5,90.9c-7.5,22.5-4.5,39.6,7.9,46.7c2.2,1.3,4,2.6,4,2.9c0,0.3-8.9,0.9-19.7,1.3
		c-51.8,1.9-97.1,8.6-157.8,23.6c-57.3,14.1-125.8,37.1-171.9,57.8l-11,4.9l-3.2-3.3c-4.4-4.7-9.6-4.7-19.4,0.2
		c-21.3,10.7-43,45.2-43,68.3c0,14.1,10.6,20.5,23.4,14.1c15.4-7.8,35.2-39,42.2-66.6c0.6-2.4,33.6-16.5,68.4-29.4
		c86.8-31.9,178.6-53.3,250-58.1c16.7-1.1,46-0.8,72.7,0.7c13.9,0.8,25.4-1,43.8-7.1c29.2-9.6,59.7-26.6,80.2-44.7
		c17.7-15.6,29.9-35.8,35.8-59.3l2.3-9l0.1,29.5c0.1,48.5-3.4,92.8-10.9,136.5c-2.7,15.7-7.8,40.9-9.9,49.4
		c-8.5,33.5-11.2,42.9-18.5,65.1c-7.1,21.4-10.8,31.2-22.1,59c-9.6,23.8-31.6,67.9-43.7,87.9c-2.1,3.4-3.8,6.4-3.8,6.6
		c0,0.2-1.8,3.2-4,6.6c-2.1,3.5-5.1,8.4-6.6,10.9c-9.2,15.3-29.3,44.1-44.3,63.5c-9,11.7-30.8,38.1-37.5,45.4
		c-24.2,26.4-44.1,46-70.1,69.1c-3.4,3-28,23.6-31,25.8c-70,54-138.3,92.3-217,121.7c-27.7,10.3-56.5,19-96.5,29.1
		c-32.7,8.2-87.5,16.2-129.1,18.9C826.7,1587.3,772.9,1587.3,744.5,1585.4z M761.5,1044.5c8.1-3.3,22.2-20.5,29.6-36
		c3.4-7.1,3.6-10,0.9-11.5c-3.2-1.7-5.4,0.2-9.9,8.6c-5.9,11-10.6,17.8-15.1,21.8c-9.5,8.6-15.3,4.3-13.5-9.9
		c1.5-12.6,8.8-34.6,17.1-52.1l4.4-9.2l12.5-4.6c6.8-2.5,14.5-5,17.1-5.6c8.5-1.9,11-4.9,8-9.5c-1.4-2.1-2.4-2.5-6.6-2.5
		c-2.7,0-8.4,1.1-12.7,2.5c-4.2,1.3-7.8,2.3-8,2.2c-0.1-0.2,1.4-2.9,3.3-6.2c9.8-16.2,11.1-21.3,5.9-23.7c-1.9-0.9-2.9-0.7-4.9,0.5
		c-2.6,1.7-16.5,23.4-21.3,33.2c-2.6,5.3-3,5.6-8.8,7.4c-3.3,1-7.6,2.2-9.5,2.6c-4.4,0.9-7,3.2-7,6c0,4.4,6.3,7.5,11.4,5.5
		c2.2-0.8,2.7-0.8,2.3,0.2c-14.1,34.7-16.1,42.2-16.2,58.8c0,11.3,0.2,12.9,2.3,16.1C746.7,1045.4,754.2,1047.6,761.5,1044.5z
		 M861.8,1043.4c1.5-1,2.2-2.5,2.2-4.9c0-3.5-1.6-5.2-7.8-8.7c-3.5-1.9-6.9-7.8-7.8-13.6c-0.9-5.6,0.9-12.5,6-24
		c6.6-14.7,8.1-19.8,6.7-22.8c-3.4-7.4-12.3-1.9-16.7,10.4c-5.6,15.9-8.9,23.7-12.6,29.8c-7.7,13-14.3,19.3-18.3,17.7
		c-1.4-0.5-1.6-1.7-1.3-6.7c0.7-9,6-21.2,15.6-35.6c10.6-15.9,10.5-15.6,9.2-17.9c-2.6-5-8-3.2-15.9,5.5
		c-13.4,14.7-24.5,42.2-22.5,55.8c1.4,8.6,6,13.6,12.6,13.6c7.5,0,14.2-5.4,22.4-17.9l2.8-4.3l1.6,6.3c1.9,7.5,2.9,9.5,6.7,13.1
		C850.6,1044.9,857.4,1046.5,861.8,1043.4z M889.5,1038.1c4.9-2.2,12.4-10.3,16.9-18.4l3.4-6l0.6,3.4c0.3,1.9,0.8,5,1.1,7
		c1.2,7.6,8.7,15.9,14.4,15.9c2.2,0,6.1-4.4,6.1-6.9c0-1-1.4-3-3.1-4.7c-4.5-4.1-5.9-8.3-5.9-16.7c0-8.8,3.2-22.2,8.5-35.7
		c8.2-20.8,24.2-53.3,39.3-80c7.6-13.4,8.7-18,5-20.4c-5.8-3.8-10.6,1.5-24,26c-8.1,14.9-22.5,44.5-25.9,53.2
		c-0.9,2.2-1,2.2-4.1,0.6c-4.4-2.3-12.9-1.4-19.9,2.1c-18.1,9.2-35.4,41.3-33.5,62.3c0.7,8.1,4.7,15.8,9.6,18.4
		C882.3,1040.4,884.4,1040.4,889.5,1038.1z M947.3,1037.8c1.5-1.5,3.8-6.3,6.1-13c6.8-20.2,14.3-35.9,26.3-55
		c3.8-6.1,5.3-9.5,5.1-11.4c-0.4-3.6-2.9-5.1-6.5-3.9c-3.8,1.4-16.7,20.6-24.8,37c-6,12-15.5,37.6-15.5,41.8c0,1.9,4.2,6.7,5.9,6.7
		C944.4,1040,946,1039,947.3,1037.8z M1002.1,925.9c4.5-3.1,9.1-10.6,9.7-15.4c0.4-3.8,0.1-4.5-2.1-6c-1.8-1.1-3.6-1.5-5.5-1
		c-5.4,1.1-15.2,13.3-15.2,18.8c0,0.8,1,2.7,2.1,4.2c1.8,2.2,2.7,2.6,5.1,2.1C997.8,928.3,1000.5,927.1,1002.1,925.9z"/>
	<path class="st0" d="M882.7,1021.2c-2.2-2.4-2.2-12-0.1-19.3c2.4-8.3,9.2-20.5,14.6-26.4c7.3-8,14.7-11,21.2-8.5l2.5,0.9l-3,7.3
		c-12.4,29.5-24.4,47.8-31.3,47.8C885.3,1023,883.6,1022.2,882.7,1021.2z"/>
	<path class="st0" d="M995.7,1019.2c-6.6-7.3,8.5-37.5,25.8-51.6c6.4-5.2,10.7-6,12.5-2.6c2.2,4-1.9,12.4-11.4,23.4l-5,5.8l1.7,3
		c1.6,2.8,1.6,3.1-0.2,6.6C1012.3,1017,1000.6,1024.7,995.7,1019.2z"/>
	<path class="st0" d="M1597.4,732.8c-0.8-2.5-1.5-2.3-8.6,2.2l-6.3,4l-1.1-4.8c-0.7-3-1.6-4.7-2.5-4.6c-0.8,0.1-8.3,4.6-16.8,10.2
		l-15.4,10l-0.1,8.4c-0.1,7.2-0.5,9.2-3.4,15.2c-8.5,18-27.8,37.7-53.7,55.1c-16.6,11.1-38.5,21.3-51.4,24l-3.4,0.7l0.5-5
		c0.3-2.8,2.1-8.3,4.1-12.5c8.8-18.7,25.4-38.7,69.5-84c12.8-13.1,26.7-27.9,30.9-33c9.8-11.8,19.8-26.9,23.6-36
		c7-16.6,2.1-28.7-11.6-28.7c-3.4,0-5.7-0.6-7.4-2c-7.3-5.7-20-0.5-44.3,18c-8.6,6.5-16.6,11.8-20.3,13.5c-0.8,0.3-1.4,0.5-1.7,0.5
		c-0.9,0-2.5-0.9-3.4-1.9c-1.6-1.8-1.4-2.3,4.7-11.7c29.5-45.4,36.2-58.8,39.3-79.5c2-13.3,0.9-19.4-4.3-23.9
		c-3.1-2.8-4.1-3.1-8.7-2.9c-4.3,0.2-5.7-0.2-7.4-1.9c-3.5-3.5-9.4-3-17.1,1.6c-12.3,7.2-31.4,29.9-40.6,48.1
		c-6.9,13.9-13.5,40.3-13.5,54.5v7.2l-12.1,16.5c-10.4,14-15.8,20.1-37.3,41.5c-23.6,23.6-40.5,38.5-53.5,47.3
		c-7.4,5.1-17.1,10.5-17.6,9.9c-1-0.9,2.8-11.5,6.7-19.1c12-23.2,36.9-56.6,79.3-106.7c25-29.4,23.8-27.7,23.8-34.4
		c0-10.1-7.8-17.5-19.8-18.9c-2.2-0.3-5.7-1.2-7.8-2.1c-2.1-0.9-6.7-2-10.2-2.3l-6.4-0.6l3.8-7.4l6.1,3c23.2,11.5,65-7.6,65-29.8
		c0-5.3-3-11.7-6.8-14.4c-3.8-2.6-10.5-5.1-14.2-5.1c-1.5,0-4.2-0.8-6.1-1.7c-2.3-1.3-6.4-1.9-13-2.1c-8.2-0.3-10.6,0-17.5,2.3
		c-17.1,5.7-28.4,16.8-28.4,28c0,3.7,0.6,5.1,3.5,8.4c2,2.1,4.6,4.2,5.9,4.5c1.2,0.3,2.8,1.7,3.4,3.1c1.1,2.3,0.8,3.1-2.5,7.5
		c-3,4-4.7,5.3-8.8,6.6c-7.4,2.4-16.5,7.7-20.6,12.1c-2,2.1-7.6,9.2-12.4,15.8c-32,43.7-78.8,97.7-99.9,115.3
		c-12.8,10.7-12.1,10.3-10.1,5.7c5.2-12.5,13.9-27.2,39.8-67c18.3-28.1,27.7-44.2,31.8-54.9c3.8-9.7,4.4-17.7,1.6-22
		c-2.1-3.2-8.7-6.4-14.3-7c-2.2-0.2-5.5-1.1-7.6-2c-2-0.8-5.6-1.9-8-2.2c-2.3-0.4-4.6-1.2-5-1.8c-0.4-0.6-0.8-10.4-0.8-21.7v-20.6
		l6.2-1.7c9.2-2.6,19.3-8.2,23.8-13.4c6.6-7.5,10.3-23.1,11.6-49.3l0.7-14l3.3-2.8c1.8-1.6,4.6-3.7,6.2-4.7l3-1.7l-5.6-3.7
		c-4-2.6-6.8-5.4-9.2-9.4c-9-14.6-13.9-18.5-24.5-19.4c-16-1.3-30.7,9.7-53.8,40.3c-20.7,27.4-41.5,52.5-62.5,75.3
		c-5.7,6.2-10.3,11.4-10.1,11.6c0.2,0.1,16.7-0.6,36.7-1.7c20-1.1,36.4-1.8,36.6-1.6c0.5,0.5,4.8,50,4.4,50.4
		c-0.2,0.1-2.5,1.4-5.3,2.8c-2.7,1.4-10.7,6.3-17.8,11l-12.7,8.6l0.6-7.9c0.8-9.9,0.1-12.6-3.9-15c-3.6-2.2-10.6-2.7-12.5-0.8
		c-0.9,0.9-1.2,0.8-1.2-0.4c0-2.4-3.9-4.8-7.9-4.8c-5.4,0-11.4,3.5-18.3,10.9c-5.8,6.1-6.8,7.8-11.1,19.2
		c-5.6,14.9-7.3,20.5-12.7,41.4c-4.5,17.5-7,22.9-19.5,42c-13.9,21.4-31.7,41.1-46.7,51.8c-11.9,8.5-30.5,15.7-40.6,15.7
		c-8.7,0-12.3-18.9-7.7-40c2.4-11.3,2.6-11.6,8.1-12.4c7.2-0.9,24.3-7,35.6-12.6c43.1-21.3,71-55.4,69.6-84.9c-0.2-5.5-1-9-2.8-12.6
		c-4.6-9.5-14.8-17.1-24.3-18.2c-2.3-0.3-5.6-1.1-7.3-1.9c-16.9-7.5-40.7-1.6-65.7,16.4c-9.4,6.7-24.6,21.3-30.7,29.5
		c-2.3,3.2-4.4,5.6-4.6,5.4c-0.2-0.2,0.5-4.9,1.6-10.5c7.5-38.7,2.9-66.2-13-77.8c-4.9-3.7-11.9-6.4-16-6.4c-1.5,0-4.2-0.8-6.1-1.7
		c-1.9-1-6.5-1.9-10.6-2.1c-6.3-0.4-7.7-0.1-12.3,2.4c-9.8,5.3-15.6,16.7-18.1,35.1c-1.7,12.8-0.6,45.2,2,57.3
		c3.1,15,9.2,30.7,15.2,39.1l1.9,2.7l-8.3,16.3c-25.6,50.5-52.7,80-79.4,86.2l-6,1.5l-2.1-4.4c-3.4-6.9-4.6-16.4-3.8-30.4
		c1-19.2,1.3-20.2,11.5-34.7c23.1-32.8,34.5-58.3,32.5-72.2c-0.9-6.1-7.1-12.6-12.9-13.6c-2.2-0.3-6.9-1.5-10.5-2.7
		c-3.5-1.1-8.8-2-11.8-2c-18.5,0.2-40.9,25.9-56.5,64.7c-7.8,19.5-13.8,42.7-15.2,59.5l-0.7,7.5l-8.7,8.8
		c-13.3,13.6-24.7,22.4-33.4,25.6c-2.7,1-2.9,0.9-4.4-2.6c-1.1-2.8-1.4-6-1.1-12.3c0.5-10,4.1-22.2,15.5-52.5
		c6.3-16.6,16.3-45.1,16.3-46.2c0-0.2-4.5-0.3-10-0.3c-9.3,0-10-0.1-10-2c0-1.8-0.7-2-7.2-2c-4,0.1-10.7,0.7-14.8,1.4
		c-24.2,4.4-34.3,15.7-44,49.1c-12.8,44-18.2,59.7-26.5,77.1c-11.1,23.6-22.8,37.4-35.5,42.2c-2.9,1.1-2.9,1.2-3.1-9.8
		c-0.3-12.9,8-41,33.3-113c23.9-68.1,25.9-74.8,22.3-78.3c-1.2-1.3-3.4-1.7-9.1-1.7c-6.7,0-7.4-0.2-7.4-2s-0.7-2-7.4-2
		c-14.7,0-25.8,5.5-40.6,20.1c-10.4,10.2-23.9,20.5-33.3,25.3l-7,3.6l-2.7-2.2c-1.5-1.3-6-5-9.9-8.3c-15.6-13.1-25.8-17.6-41.3-18.3
		c-5.9-0.2-11.6-0.1-12.5,0.3c-1,0.3-5.1,0.8-9.1,1c-8.3,0.5-24.1,4.4-30.4,7.6c-11.6,5.8-22.4,15.7-29.9,27.2c-2.1,3.2-4,5.9-4.3,6
		c-0.2,0.1-2.5-3.8-5-8.8c-8.5-17-17.5-25.4-31.9-30c-25.9-8.2-24.5-8-45.8-8h-19.7l6.9-3.5c24.6-12.5,47.3-40.8,57.2-71.1
		c10.8-33.1,5.6-63.1-14.4-82.9c-9.2-9.1-24.2-17.5-33.3-18.6c-1.7-0.2-6.5-1.6-10.6-3.1c-10-3.5-28.9-4.4-42.5-1.8
		c-28.4,5.2-64.2,23.4-94.5,47.8c-31.2,25.1-59.5,61.1-77,98c-1.6,3.3-3,6.5-4.3,9.7c-16,38.6-14,68.8,5.7,86.5
		c20.1,18.1,21.4,18.9,32.1,22.1c6.9,2,19.8,2.2,31.3,0.6c1.4-0.2,2.8-0.4,4.2-0.7c11.9-2.2,32.1-8.4,55.5-17
		c56.2-20.7,71.7-25,94-26.1c11.2-0.6,24.5,1.2,26.9,3.6c1.9,1.9,2,19.3,0.1,27.7c-7,31.5-32.2,72.8-76.8,125.9
		c-4.9,5.8-10,11.8-15.3,17.9c-67.8,77.4-135.2,123.4-181,123.5c-8.1,0-8.2,0-11.3-3.5c-9.9-11.3-7.7-42.1,5-70.4
		c6.8-15.1,22.5-35.6,44.4-58c23.7-24.3,50.1-46.7,87.5-74.5l3.8-2.8l14.3-10.7l-4.1-3c-4.7-3.4-9-4.5-14.9-3.9
		c-2.8,0.2-3.7,0-3.4-0.9c0.7-1.8-5.7-4.3-10.7-4.3c-0.1,0-0.2,0-0.3,0c-5.7,0.2-17.6,4.3-25.6,8.9c-8.6,5.1-35.2,24.9-51.1,38.1
		c-16.9,14-42.3,39.7-54.7,55.1c-11.4,14.3-22.3,30.5-30.9,45.8c-4.5,8.1-6,9.9-6.5,8.5c-1.1-3-4.7-28.4-6.4-44.4
		c-0.8-8-2.1-19.7-2.7-26c-1.7-15.7-1.7-109.3,0-125c0.6-6.3,1.9-18,2.7-26c5.7-54.7,21.4-123.5,40-174.5c0.3-0.7,0.5-1.5,0.8-2.2
		c1.8-4.9,3.6-10.1,4.3-12.2c5.9-16.7,21.4-52.1,33-75.4c10.9-21.8,15.7-30.6,30.2-54.7c20.1-33.6,43.8-66.9,70.1-98.4
		c18.4-22.1,27.5-32,49.6-54.1c53.6-53.5,111.4-97.1,178-134.2c19.4-10.8,64-32.3,79.5-38.4c2.5-0.9,11-4.3,19-7.4
		c59.7-23.4,124.6-39.6,192-48c59.7-7.4,135.7-7.3,195.9,0.1C926.7,9,965.1,15.7,984,20.4c51.3,12.9,80.2,22.2,121.5,39
		c67.7,27.4,129,63.1,192,111.8c3,2.2,27.6,22.8,31,25.8c25.5,22.7,47.3,44.2,70.1,69.1c15.5,16.9,41.8,50.2,58.8,74.3
		c4.9,6.8,20.1,29.8,23,34.6c1.5,2.5,4.5,7.4,6.6,10.9c2.2,3.4,4,6.4,4,6.6s1.7,3.2,3.8,6.6c12.1,20,34.1,64.1,43.7,87.9
		c7.2,17.7,11.3,28.2,15.2,38.9c2.2,6.1,4.3,12.3,6.9,20.1c7.3,22.2,10,31.6,18.5,65.1c5,19.6,11.9,58.8,15.3,86.9
		C1596.9,718.3,1598.4,736.1,1597.4,732.8z"/>
	<path class="st0" d="M444.7,877.5c-5.3-3.7-9.4-12.8-10.7-24.2c-3.3-27.5,9.5-85.5,26.1-118.6c4-7.8,11.6-19.7,12.7-19.7
		c0.4,0,1.3,1.9,1.9,4.3c2.9,10.7,11.1,16.9,22.7,17.1l6.8,0.1l-0.6,9.1c-0.8,11.9-4.9,36.5-8.5,51.8c-8,33.3-20.8,59.3-36.4,74.3
		C450,880.1,449.1,880.4,444.7,877.5z"/>
	<path class="st0" d="M143.5,709.6c-9-11.9-8.8-30.7,0.8-51.7c12.3-27,36.8-56.6,64.5-77.9c32.6-25.1,56.5-37.5,74.8-38.7
		c11.5-0.8,18.3,1.3,20.9,6.4c2.7,5.5,3.2,20.8,1,29.3c-4.1,15.8-17.5,32.5-46.5,57.8l-3.5,3l5.3,3.2c4,2.6,5,3.6,4.1,4.6
		c-0.8,1,1.5,2.6,10.8,7.3c19.7,9.9,23.8,12.1,23.1,12.1c-3.4,0-24.2,4.8-35,8c-16.9,4.9-26.3,8.4-61.7,22.5
		c-28.9,11.5-41.4,15.7-50.7,17C146.3,713.1,146.2,713.1,143.5,709.6z"/>
	<path class="st0" d="M1030.5,685.9c4.4-7.4,21.7-26.8,28-31.2l2.9-2.2l-2.4,4c-4.1,6.9-10.6,14.8-16.6,20.5
		C1035.9,683.2,1029.2,688.2,1030.5,685.9z"/>
	<path class="st0" d="M945.4,630.4c-1.2-11.1,2.8-31.6,5.8-29.8c2,1.3-1.8,33.3-4.2,35.8C946.6,636.8,945.8,634.1,945.4,630.4z"/>
	<path class="st0" d="M1231,587.6c0-11.1-0.3-21.7-0.6-23.7l-0.6-3.7l7.8-0.4c4.4-0.3,7.9-0.4,8-0.4c0.1,0.1,1,9.6,2,21.1l1.9,21.1
		l-9.2,3l-9.3,3.1V587.6z"/>
</g>
<linearGradient id="SVGID_1_" gradientUnits="userSpaceOnUse" x1="800.5" y1="-2.837637e-04" x2="800.5" y2="1064.78">
	<stop  offset="9.765625e-03" style="stop-color:#E53321"/>
	<stop  offset="1" style="stop-color:#EB5C1D"/>
</linearGradient>
<path class="st1" d="M1553.7,525.9c-18.9,55.5-43.9,108.3-74,157.5c-17.9,29.3-37.7,57.3-59.1,84c-31.3,38.9-66.2,74.8-104.1,107.2
	c-5.2,4.4-10.5,8.8-15.8,13.1c-136.8,110.7-310.9,177.1-500.6,177.1c-39.1,0-77.5-2.8-115-8.2c-6.3-0.9-12.7-1.9-18.9-3
	c-78.2-13.2-152.5-37.9-221.2-72.2c-6.1-3-12.2-6.2-18.2-9.4c-31.8-16.9-62.4-36-91.5-56.9c-23.5-16.9-46.1-35.1-67.6-54.5
	c-23.6-21.3-46-43.9-66.9-67.9c-6.5-7.5-12.9-15-19.2-22.7c-6.1-7.5-12-15.1-17.9-22.8c-25.9-34.3-49-70.8-69.1-109.2
	c-18.4-35.1-34.3-71.8-47.4-109.7c1.8-4.9,3.6-10.1,4.3-12.2c5.9-16.7,21.4-52.1,33-75.4c10.9-21.8,15.7-30.6,30.2-54.7
	c20.1-33.6,43.8-66.9,70.1-98.4c18.4-22.1,27.5-32,49.6-54.1c53.6-53.5,111.4-97.1,178-134.2c19.4-10.8,64-32.3,79.5-38.4
	c2.5-0.9,11-4.3,19-7.4c59.7-23.4,124.6-39.6,192-48c59.7-7.4,135.7-7.3,195.9,0.1C926.7,9,965.1,15.7,984,20.4
	c51.3,12.9,80.2,22.2,121.5,39c67.7,27.4,129,63.1,192,111.8c3,2.2,27.6,22.8,31,25.8c25.5,22.7,47.3,44.2,70.1,69.1
	c15.5,16.9,41.8,50.2,58.8,74.3c4.9,6.8,20.1,29.8,23,34.6c1.5,2.5,4.5,7.4,6.6,10.9c2.2,3.4,4,6.4,4,6.6s1.7,3.2,3.8,6.6
	c12.1,20,34.1,64.1,43.7,87.9C1545.7,504.7,1549.8,515.2,1553.7,525.9z"/>
<g id="layer101">
	<path class="st2" d="M74.5,1058.9c-12.4-1.8-30.2-9.4-38.3-16.4c-2.4-2.1-4.1-3.9-4-4.1c0.2-0.2,3.2,1,6.6,2.7
		c3.5,1.6,10.2,3.9,15,5c7.7,1.9,10.7,2.1,25.7,1.6c29.6-1,54.2-7.8,88.3-24.3c42.3-20.4,80.2-47.8,119.6-86.4
		c39.2-38.4,66.7-75,86.8-115.4c6.4-12.8,7-13.7,6.3-9.1c-0.5,2.8-0.9,13.6-0.9,24l-0.2,19l-6.8,10.5
		c-30.2,46.4-75.9,94.3-123.6,129.4c-4.2,3.1-5.6,4.6-4,4.2c1.4-0.3,7.7-1.9,14-3.6c112.7-28.7,308-35.8,405.5-14.6l11,2.4l1.5-2.1
		c9.3-13.5,25.8-22.6,40.8-22.7c11.9,0,15.5,3,15.4,12.7c-0.1,9.8-6.8,19.2-18.1,25.1c-7.5,4-12.6,5.3-15.7,4.1
		c-2.2-0.8-2.5-1.4-2.2-4.5c0.3-4.1,0.8-4.5,9.3-7.5c7.4-2.7,13.5-8.4,13.5-12.6c0-4-1.6-5.3-6.5-5.3c-8,0-20.6,8.4-24.4,16.3
		c-3.8,7.9-2,15,6.4,25.8c7.1,9.1,9.5,14.3,9.5,21.1c0,13.3-10.4,22.7-25.3,22.8c-15,0-23.9-9.4-24-25.5c-0.1-10.7,5.1-20.5,11-20.5
		c3.2,0,3.6,1.8,1.8,6.9c-1.9,5.5-1.9,14.4,0,18c3.4,6.7,10.7,10.2,16.9,8.1c4.4-1.4,6.6-4.8,6.6-10.3c0-4.5-2.4-9.2-9-17.2
		c-4.3-5.3-9-15.2-9-19.2c0-3.1-0.2-3.2-6.7-4.7c-31.5-7.1-71.6-11.1-124.8-12.5c-102.1-2.6-209.6,7.6-284.5,27
		c-25.1,6.5-43.9,13.3-66,23.9c-22.5,10.7-33.3,15.2-48.5,19.9C119.3,1058.4,92.4,1061.5,74.5,1058.9z"/>
	<path class="st2" d="M748.3,1044.4c-1.8-0.9-4.3-3.3-5.5-5.3c-2.1-3.2-2.3-4.8-2.3-16.1c0.1-16.6,2.1-24.1,16.2-58.8
		c0.4-1-0.1-1-2.3-0.2c-5.1,2-11.4-1.1-11.4-5.5c0-2.8,2.6-5.1,7-6c1.9-0.4,6.2-1.6,9.5-2.6c5.8-1.8,6.2-2.1,8.8-7.4
		c4.8-9.8,18.7-31.5,21.3-33.2c2-1.2,3-1.4,4.9-0.5c5.2,2.4,3.9,7.5-5.9,23.7c-1.9,3.3-3.4,6-3.3,6.2c0.2,0.1,3.8-0.9,8-2.2
		c4.3-1.4,10-2.5,12.7-2.5c4.2,0,5.2,0.4,6.6,2.5c3,4.6,0.5,7.6-8,9.5c-2.6,0.6-10.3,3.1-17.1,5.6l-12.5,4.6l-4.4,9.2
		c-14.7,30.9-21.6,61.9-14.5,65.7c6.2,3.3,15.2-5.5,26-25.5c2.2-4.2,4.9-8.1,6-8.7c2.6-1.3,5.9,0.5,5.9,3.4c0,6-14.4,29.1-23.3,37.5
		C762.1,1045.9,755.3,1047.8,748.3,1044.4z"/>
	<path class="st2" d="M850.5,1043.4c-3.5-1.8-8.2-6.1-9.8-8.9c-0.6-1.1-1.8-4.9-2.7-8.4l-1.6-6.3l-2.8,4.3
		c-8.2,12.5-14.9,17.9-22.4,17.9c-6.6,0-11.2-5-12.6-13.6c-2-13.6,9.1-41.1,22.5-55.8c7.9-8.7,13.3-10.5,15.9-5.5
		c1.3,2.3,1.4,2-9.2,17.9c-9.6,14.4-14.9,26.6-15.6,35.6c-0.3,5-0.1,6.2,1.3,6.7c4,1.6,10.6-4.7,18.3-17.7c3.7-6.1,7-13.9,12.6-29.8
		c4.4-12.3,13.3-17.8,16.7-10.4c1.4,3-0.1,8.1-6.7,22.8c-5.1,11.5-6.9,18.4-6,24c0.9,5.8,4.3,11.7,7.8,13.6c6.2,3.5,7.8,5.2,7.8,8.7
		C864,1044.4,857.2,1046.9,850.5,1043.4z"/>
	<path class="st2" d="M878,1038.2c-4.9-2.6-8.9-10.3-9.6-18.4c-1.9-21,15.4-53.1,33.5-62.3c7-3.5,15.5-4.4,19.9-2.1
		c3.1,1.6,3.2,1.6,4.1-0.6c3.4-8.7,17.8-38.3,25.9-53.2c13.4-24.5,18.2-29.8,24-26c3.7,2.4,2.6,7-5,20.4
		c-15.1,26.7-31.1,59.2-39.3,80c-5.3,13.5-8.5,26.9-8.5,35.7c0,8.4,1.4,12.6,5.9,16.7c1.7,1.7,3.1,3.7,3.1,4.7
		c0,2.5-3.9,6.9-6.1,6.9c-5.7,0-13.2-8.3-14.4-15.9c-0.3-2-0.8-5.1-1.1-7l-0.6-3.4l-3.4,6c-6.5,11.5-16.3,20.2-22.9,20.3
		C882.4,1040,879.9,1039.2,878,1038.2z M892.4,1020c6.6-5.8,16.2-22.8,25.5-44.8l3-7.3l-2.5-0.9c-9.5-3.6-21.5,5-30.1,21.7
		c-5.2,9.9-7.3,17.1-7.3,24.7C881,1023.1,885.7,1025.8,892.4,1020z"/>
	<path class="st2" d="M940.5,1037.5c-1.4-1.3-2.5-3.2-2.5-4.2c0-4.2,9.5-29.8,15.5-41.8c8.1-16.4,21-35.6,24.8-37
		c3.6-1.2,6.1,0.3,6.5,3.9c0.2,1.9-1.3,5.3-5.1,11.4c-12,19.1-19.5,34.8-26.3,55c-3.4,10-6.7,15.2-9.5,15.2
		C943.4,1040,941.8,1038.9,940.5,1037.5z"/>
	<path class="st2" d="M989.1,1035.3c-5.4-2.8-7.4-6.4-7.9-13.7c-1.5-22.7,20.7-58.9,42.8-70c9.8-4.9,15-4.9,19.4-0.2l3.2,3.3l11-4.9
		c77.6-34.8,187.3-65.9,269.9-76.7c30.7-4,79-6.4,86.9-4.4c28.5,7.4,89.6-15.6,128.6-48.3c10.2-8.6,16.4-15.9,23.7-27.9
		c8.8-14.6,14-30,15-44.7l0.6-8.8l6.4-4c3.5-2.2,6.8-4,7.2-4c1.9,0,4.1,10.6,4.1,19.4c0,20.2-9.8,45.6-25,64.7
		c-17.2,21.8-56.3,46.2-93.5,58.4c-18.4,6.1-29.9,7.9-43.8,7.1c-26.7-1.5-56-1.8-72.7-0.7c-71.4,4.8-163.2,26.2-250,58.1
		c-34.8,12.9-67.8,27-68.4,29.4c-2.1,8.3-6.8,20.8-10.3,27.6C1020.4,1025.4,1001.4,1041.6,989.1,1035.3z M1007.1,1018.5
		c4-3,9.3-9.5,12-14.7c1.8-3.5,1.8-3.8,0.2-6.6l-1.7-3l5-5.8c9.5-11,13.6-19.4,11.4-23.4c-1.8-3.4-6.1-2.6-12.5,2.6
		c-17.3,14.1-32.4,44.3-25.8,51.6C998,1021.8,1003,1021.5,1007.1,1018.5z"/>
	<path class="st2" d="M55,1001.1c-8.1-2.5-13.6-7.9-17.1-16.8c-4.4-11.3-2.8-32.4,4-52.6c13.2-38.9,55.6-84.7,131.4-141.8
		c19.2-14.5,19.9-14.9,24.6-14.9c5.8,0,9.3,1.2,13.9,4.6l3.3,2.6l-18.2,13.4c-37.3,27.8-63.7,50.2-87.4,74.5
		c-33.9,34.7-48.3,58.2-54,88c-1.9,10.5-1.9,25,0,31.7c0.9,2.9,3,6.8,4.6,8.7l3.1,3.5l-2.8-0.1C58.8,1001.9,56.4,1001.5,55,1001.1z"
		/>
	<path class="st2" d="M991.1,926.5c-1.1-1.5-2.1-3.4-2.1-4.2c0-5.5,9.8-17.7,15.2-18.8c1.9-0.5,3.7-0.1,5.5,1c2.2,1.5,2.5,2.2,2.1,6
		c-0.9,7.5-8.8,16.7-15.6,18.1C993.8,929.1,992.9,928.7,991.1,926.5z"/>
	<path class="st2" d="M452.6,903.1c24.9-12.1,44.2-37.8,58.7-78.1c7.6-21.1,18.2-59.5,23.2-83.8c1.2-6.2,2.4-11.4,2.6-11.6
		c0.2-0.1,3.1-1.9,6.4-3.9c3.3-1.9,9.8-6.3,14.4-9.6c4.7-3.3,8.6-5.9,8.8-5.8c0.1,0.2-0.5,2.6-1.3,5.5c-1.4,4.6-2.3,5.7-7.1,9
		l-5.6,3.7l-2.3,11.5c-4.7,23-14.7,59.2-22.6,81.8c-8.5,24.6-21.2,47.2-34.2,60.9c-13.7,14.5-32.1,24.3-45.8,24.3
		C445.1,907,445.7,906.5,452.6,903.1z"/>
	<path class="st2" d="M575.3,900.5c-6.8-1.9-12.3-4.7-16.8-8.6c-4.6-4.1-4.4-5,0.8-3.1c3.1,1.2,7.7,1.6,17.2,1.6
		c11.6,0,13.9-0.3,21-2.8c19.3-6.7,35.5-17.8,50.2-34.5c8.6-9.8,18.6-23.6,25-34.6c2.1-3.6,4.1-6.5,4.5-6.5s0.9,0.9,1.3,1.9
		c0.3,1.1,3.1,4.5,6.1,7.6c3.3,3.5,5.3,6.4,5,7.2c-1.3,3.2-15,22.4-22.5,31.5c-17.7,21.4-39.6,35.6-62.2,40.3
		C596.2,902.4,582.2,902.3,575.3,900.5z"/>
	<path class="st2" d="M430,879.9c-12.5-7.2-15.6-28.7-9.5-65.4c5.1-30.5,12.4-54.5,23.5-77c8.8-17.8,18.4-29.8,25.6-31.9
		c1.9-0.6,2.2-0.2,2.8,3.7c0.6,4,0.3,4.9-4,11.3c-16.8,25.1-30.5,69.5-34.4,111.7c-2.1,22.1,2,39.2,10.7,45.2l3.6,2.4l-2.7,1.1
		C441.1,882.7,433.9,882.2,430,879.9z"/>
	<path class="st2" d="M589.4,855.1c-3.2-1.4-7.3-6.8-8-10.8c-1.7-9,1.8-27,11.1-56.3c5.6-17.7,5.8-18.4,26-76
		c8.9-25.6,17-49.5,18-53.2l1.8-6.8h7.3c15,0,15.3-1.6-13.4,80c-29.1,82.8-35.5,106.2-33,121.5c0.3,1.7-0.3,2-3.7,2.2
		C593.3,855.8,590.6,855.5,589.4,855.1z"/>
	<path class="st2" d="M1422.3,851.8c-1.2-0.6-2.9-2.6-3.8-4.5c-2.4-4.9-1.2-11.6,4-22.1c9.1-18.6,26.5-39.5,70.5-84.7
		c11.3-11.5,23.4-24.3,26.9-28.4c20.5-23.9,31.1-44.2,28.4-54.2l-1-3.9h4.6c13.5,0,18.3,12.3,11.4,28.7c-3.8,9.1-13.8,24.2-23.6,36
		c-4.2,5.1-18.1,19.9-30.9,33c-44.1,45.3-60.7,65.3-69.5,84c-2,4.1-3.8,9.7-4.1,12.4l-0.5,4.9l-5.1-0.1
		C1426.8,852.9,1423.5,852.4,1422.3,851.8z"/>
	<path class="st2" d="M822.6,850c-10.7-1.9-17.8-5-25.8-11.3c-5.1-3.9-4.8-4.9,1-2.7c11.3,4.3,29.7,4.5,41.7,0.5
		c32.4-11,69.4-53.5,98.4-113.2l6.4-13.1l4.7,3.1c2.6,1.8,5.4,3.7,6.2,4.2c1.4,0.9,1.4,2,0,10.5c-0.8,5.2-1.9,9.7-2.2,10
		c-0.4,0.3-2.4,3.8-4.4,7.8c-5.5,11-15.5,27.4-24.1,39.6c-24,34.3-50.6,57.2-73.3,63C843.7,850.4,829.1,851.2,822.6,850z"/>
	<path class="st2" d="M712.3,841.5c-5.8-1.7-12.2-5.7-15.8-9.6c-2.3-2.5-2.5-3-1-2.4c5.7,2.2,12,2.8,19,1.7
		c14-2.2,25.1-8.8,41.8-25.1c5.9-5.7,10.9-10.2,11.1-10c0.1,0.2,0.9,2.7,1.5,5.4c0.7,2.8,2.1,7,3.2,9.4l1.9,4.4l-2.7,3
		C753.6,836.8,728.6,846.7,712.3,841.5z"/>
	<path class="st2" d="M1283,832.1c-4.7-1.5-9.5-4.3-12.7-7.4c-4-3.7-4.2-5-0.7-3.7c5,1.9,18.6,1.2,28-1.6
		c25.5-7.3,51.6-25.5,85.4-59.4c20-19.9,36.8-39.4,51.6-59.9c0.2-0.2,2.4,1.8,5,4.4c2.6,2.5,5.8,5.4,7.1,6.2
		c1.2,0.8,2.3,1.9,2.3,2.3c0,1.5-23.4,30.2-34.7,42.5c-34.6,37.9-67.9,63.2-96.8,73.5c-7.8,2.8-10.6,3.3-20.5,3.6
		C1290.7,832.8,1284.4,832.6,1283,832.1z"/>
	<path class="st2" d="M1002.8,819.5c-3.2-0.8-8.1-2.6-11-4.1c-5.5-2.8-14.2-9.4-13.4-10.1c0.3-0.3,3.1,0.5,6.3,1.8
		c7.8,3,22.5,3,33.3,0.1c16.8-4.5,38-15.8,58.2-30.9c6-4.6,11.2-8.3,11.3-8.3c0.2,0-1.4,5.2-3.6,11.6c-2.1,6.3-3.9,12.6-3.9,13.9
		c0,1.9-1.7,3.4-8.5,7.5C1045,817,1019.7,823.8,1002.8,819.5z"/>
	<path class="st2" d="M1094.3,812.5c-1.2-0.9-2.7-3.2-3.3-5.3c-0.9-3.1-0.8-3.9,0.7-4.7c0.9-0.5,5-3.2,9.2-6
		c8.6-5.7,6.2-1.6,31-52.5c12.1-24.8,21.9-42.2,29.3-51.8c7.2-9.4,34.9-35.5,44.3-41.8c5-3.4,10.5-4.5,10.5-2.1
		c0,0.7-3.9,8.3-8.6,16.7c-7.7,14-9.4,16.4-17.8,24.5c-14.5,14.2-26.9,34.5-46.7,76.5c-16.2,34.6-16,34.3-23.1,39.3
		C1107.7,813.9,1099.5,816.2,1094.3,812.5z"/>
	<path class="st2" d="M710,803.2c-1.9-0.9-4.8-3.7-6.5-6c-2.9-4.2-3-4.7-2.9-15c0.1-9.9,0.4-11.7,4.8-25.2c2.7-8,8.3-23.9,12.6-35.5
		c4.2-11.5,8.6-23.5,9.6-26.5l1.9-5.5l10.3-0.3c5.6-0.1,10.2-0.1,10.2,0.1c0,1.1-10,29.4-16.3,46.2c-11.4,30.3-15,42.5-15.5,52.5
		c-0.3,6.2,0,9.5,1.1,12.2c1.5,3.5,1.4,3.6-0.6,4.2C715.2,805.3,713.7,805.1,710,803.2z"/>
	<path class="st2" d="M1206.4,796.2c-4.9-1.7-11.5-6.2-14.5-9.8c-1.3-1.6-1.1-1.7,1.5-1c6.8,1.7,8.6,1.7,14.7,0.2
		c11.9-3.1,27.7-14.1,41.9-29.3c4.1-4.3,7.1-7.1,6.8-6.2c-2.8,7.5-6.1,19.6-7,25.6c-1.1,7.2-1.3,7.5-5.7,10.7
		c-9,6.6-21.7,11.6-29,11.6C1213.1,797.9,1209.2,797.1,1206.4,796.2z"/>
	<path class="st2" d="M825.7,795.6c-5.1-1.9-7.2-3.9-10.2-10c-4.6-9.5-5.6-23.7-3-43.1c1-7.8,2.1-11.8,3.5-13.8
		c12.8-17.3,28.4-42.6,33.6-54.6c6.4-14.9,7.8-24,4.5-30.4l-1.9-3.8l3.6,0.7c10.5,1.7,16.4,6.6,17.6,14.6
		c2.1,13.7-9.5,39.4-32.5,72.1c-10.2,14.5-10.5,15.5-11.5,34.7c-0.8,13.9,0.5,23.8,3.7,30.1c1,2.1,1.9,4.1,1.9,4.4
		C835,797.5,829.5,796.9,825.7,795.6z"/>
	<path class="st2" d="M1293,789.7c-6-3-5-13.3,3.1-29.2c12.4-24.5,36.9-57.4,83.3-111.9c13.3-15.7,18.7-22.8,19.2-25.2
		c0.7-3.7-0.9-9.6-3.2-11.4c-2.5-2.2-1.5-2.8,3.1-1.9c11.3,2.1,17.8,8.8,17.8,18.5c0,6.7,1.2,5-23.8,34.4
		c-51.6,60.9-79.1,99.8-85,120.3c-1.3,4.5-2.3,6-4.2,6.8C1300,791.3,1296,791.2,1293,789.7z"/>
	<path class="st2" d="M1001.6,784.5c-5.8-2-8.8-4.6-11.4-9.7c-3.1-6.1-4.3-15.2-3.2-25.2c1-8.8,3.8-22.7,5-24.5c0.4-0.7,4.7-2,9.6-3
		c16.5-3.5,34.2-11.3,51.4-22.6c31.2-20.7,49-45.8,49-69.2c0-9.5-2.8-16-9.2-21.9l-4.1-3.7l4.1,0.5c9.6,1.3,19.6,8.9,24.2,18.3
		c1.8,3.6,2.6,7.1,2.8,12.6c1.4,29.5-26.5,63.6-69.6,84.9c-11.3,5.6-28.4,11.7-35.6,12.6c-2.8,0.4-5,1.3-5.5,2.3
		c-1.8,3.7-4.4,19.2-4.5,27.1c-0.1,10.5,0.7,14.8,3.9,19.4l2.4,3.6h-2.7C1006.7,785.9,1003.7,785.3,1001.6,784.5z"/>
	<path class="st2" d="M1202.8,763.9c-2.7-1.5-3.2-7-1.3-13.4c3.2-11.3,13-28.2,40.6-70.6c31.6-48.5,38-62.7,33.4-73.2
		c-0.7-1.7-0.4-1.8,3.1-1.2c6.2,1.1,12.1,4.1,14.1,7.1c2.8,4.3,2.2,12.3-1.6,22c-4.1,10.7-13.5,26.8-31.8,54.9
		c-23.8,36.5-27.2,42.2-34.9,57c-6.5,12.7-7.6,14.2-11.4,16.2C1208.4,765.2,1205.5,765.5,1202.8,763.9z"/>
	<path class="st2" d="M139.5,748c-10.9-1.5-20.2-5.9-26.3-12.3l-3.3-3.4l5.7,1.9c7.6,2.6,20.2,3.3,30.5,1.9
		c17.1-2.5,32.2-7.2,84.9-26.3c36.6-13.3,55.7-17.8,75.9-17.8c17.6,0,32.3,4.6,35.6,11.1c1.7,3.2,1.7,3.2-0.7,2.5
		c-7.6-2-16.2-2.8-25.3-2.3c-21.8,1.3-37.7,5.8-93,26.2C181.3,745.1,156.9,750.4,139.5,748z"/>
	<path class="st2" d="M396.5,731.3c-2.7-26.8-13.1-48.9-27.7-58.8c-6.2-4.1-5.6-4.3,4-1.1c14.7,5,23.4,13.3,31.9,30.3
		c4.3,8.6,4.5,9.5,3.3,12c-0.7,1.6-3.5,7.7-6.1,13.6l-4.7,10.9L396.5,731.3z"/>
	<path class="st2" d="M1453,716.5c-0.8-0.9-0.8-1.5-0.2-1.5c1.8,0,4.2,1.2,4.2,2.1C1457,718.5,1454.4,718.1,1453,716.5z"/>
	<path class="st2" d="M135.5,711.5c-2.3-0.8-5.8-3.3-8.2-6c-14.5-15.9-11-43.5,9.7-76.5c12.5-20,26.6-36.4,43.9-50.8
		c45.6-38.2,80.2-53.9,103.2-46.9c6.2,1.9,14.5,7,16.6,10.4l1.4,2.1l-4.8-1.5c-6.8-2.1-19.7-1.2-29,2c-22.7,8-59.2,32.7-82.9,56.2
		c-16.4,16.3-32.9,39.3-41.1,57.4c-9.5,20.9-9.8,39.8-0.8,51.7l2.6,3.4h-3.3C141,712.9,137.7,712.3,135.5,711.5z"/>
	<path class="st2" d="M955.6,698.4c-3.3-2.5-4.6-4.1-4.2-5.3c0.3-0.9,3-8.8,6-17.6c9.9-28.9,13.9-49.2,14-71
		c0-21.2-3.4-32.8-12.3-40.8c-3.7-3.4-3.9-3.7-1.8-3.7c3.9,0,10.9,2.9,15.7,6.4c16.1,11.8,20.4,38.3,12.9,78.6
		c-1.9,9.7-2.8,12.4-6,17.1c-5.8,8.6-13.4,23.7-15.9,31.4c-1.2,3.9-2.6,7.3-2.9,7.8C960.7,701.7,958.2,700.4,955.6,698.4z"/>
	<path class="st2" d="M1001,699c0-2.6,7.6-16.4,13.7-25c8.8-12.2,23.6-27.6,30.7-31.8c7.1-4.4,12.3-5.6,15.3-3.7
		c6.1,4,3.6,10.5-8,21.5c-5,4.7-12.5,13-16.8,18.6c-8.5,11-12.2,13.6-26.7,18.8C1000.8,700.4,1001,700.3,1001,699z"/>
	<path class="st2" d="M532.7,697.5c-1.6-0.8-5.6-4-9-7.1c-12.3-11.1-26.5-18.9-36.8-20.1c-8-0.9-4.5-2.3,6-2.3
		c10.7,0,17.2,1.5,26.2,6.1c6.2,3.1,16.8,10.8,24.8,18.1l5.1,4.6l-3.1,1.1C541.5,699.4,536,699.3,532.7,697.5z"/>
	<path class="st2" d="M826,686.9c0-1.7,5.6-15.3,9.2-22.1c6.2-12,7.2-9.8,1.6,3.7C834.6,673.9,826,688.4,826,686.9z"/>
	<path class="st2" d="M1467.7,683.6c-4.7-1.7-9.8-5.6-11.6-8.9c-1.3-2.4-0.9-3.3,9.4-19.1c13.1-20.4,23.7-38.1,27.5-46.2
		c5-10.4,8.3-24.5,8.4-35.6l0.1-9.8h4.7c3.8,0,5.4,0.6,8.2,3.1c5.1,4.4,6.1,10.5,4.2,23.8c-3.1,20.7-9.8,34.1-39.3,79.5l-6.4,9.8
		l2.2,2.4l2.2,2.4h-2.9C1472.8,684.9,1469.8,684.3,1467.7,683.6z"/>
	<path class="st2" d="M934.7,658.3c-3.2-12.2-6.5-29.2-7.3-38.1c-1.1-11.2,3.2-28.1,8.1-32.2c2.4-2,8.4-1.4,11.1,1.1
		c1.3,1.2,2.8,3.7,3.5,5.6c0.9,2.9,0.8,4.2-1,8.4c-3.3,7.6-4.7,19.4-3.4,28.4c0.9,6.1,0.8,8.7-0.4,13.3c-1.9,7.8-6.4,21.5-7.3,22.5
		C937.6,667.7,936.1,663.7,934.7,658.3z"/>
	<path class="st2" d="M293.5,661.9c-3.3-1.7-11.3-5.8-17.8-9c-9.8-5-11.7-6.2-10.7-7.4s2.7-0.6,11.1,3.5l9.8,5l5.7-2.1
		c14.4-5.4,34.9-23.4,46-40.4c13.6-20.9,20.4-41.8,20.4-62.9c0-9.2-0.5-13.9-2.1-19.6c-4.4-15.9-14-28.9-27.9-38
		c-7.2-4.6-5.4-4.8,5.3-0.5c19,7.6,34.2,23.4,39.7,41.3c5.6,17.9,5,36.6-1.7,57.1c-9.9,30.5-33.2,59.3-57.7,71.4
		C303.1,665.5,300.7,665.7,293.5,661.9z"/>
	<path class="st2" d="M1163.9,644.7c3.6-10.7,6.1-20.5,7.9-30.7c0.7-4.3,0.9-4.5,4.6-4.8c4.6-0.4,9.1,1.3,11.1,4.2
		c1.6,2.2,1.9,8.3,0.9,16c-0.7,4.6-1,5-12.8,14.4c-6.6,5.3-12.8,10.3-13.8,11C1160.5,655.7,1161,653.5,1163.9,644.7z"/>
	<path class="st2" d="M1457,630.9c0-1.6,7.6-19.2,11.5-26.9c4.5-8.5,9.8-16,11.6-16c3.8,0-4,15.4-19.4,38
		C1458.7,629,1457,631.2,1457,630.9z"/>
	<path class="st2" d="M1223.7,605.3c-0.4-3.2-1.4-14.3-2.3-24.8c-0.9-10.4-1.8-19.2-2-19.4c-0.2-0.2-16.6,0.5-36.6,1.6
		s-36.5,1.8-36.7,1.7c-0.2-0.2,4.4-5.4,10.1-11.6c21-22.8,41.8-47.9,62.5-75.3c23.1-30.6,37.8-41.6,53.8-40.3
		c10.6,0.9,15.5,4.8,24.5,19.4c2.4,4,5.2,6.8,9.2,9.4l5.6,3.7l-3,1.7c-1.6,1-4.4,3.1-6.2,4.7l-3.3,2.8l-0.7,14
		c-1.3,26.2-5,41.8-11.6,49.3c-4.5,5.2-14.6,10.8-23.8,13.4l-6.3,1.8l0.3,21.7l0.3,21.7l-3.5,0.5c-1.9,0.2-3.8,0.2-4.1-0.2
		c-0.3-0.3-1.4-10-2.4-21.4c-1.8-20.2-1.9-20.8-3.9-20.3c-1.2,0.3-4.6,0.6-7.6,0.6h-5.5l0.3,23.9l0.4,24l-3.1,1.5
		c-1.6,0.9-3.2,1.6-3.4,1.6C1224.4,611,1224,608.4,1223.7,605.3z M1207.6,554c39.1-2.2,45.6-2.9,55.4-6.1
		c22.5-7.3,27.5-18,27.5-59.4c0-22-1.1-29.8-5.3-36.9c-2.5-4.3-8.3-6.9-15.2-6.9c-7.9,0-15,3.7-24.8,12.9l-7.7,7.3l6.6,0.1
		c9.6,0,16.6,2.4,21.5,7.4c7,6.9,8.1,16.3,2.9,25.2c-3.3,5.6-14.4,15.8-25,22.9c-11.5,7.7-41.9,23-55.5,27.9
		c-19.4,7-20.5,7.5-18.4,7.5C1170.8,556,1187.9,555.1,1207.6,554z M1202.8,534.2c39.8-18.1,64-37.8,61.6-50.1
		c-1.1-5.2-6.3-9.7-13-11.1c-6.2-1.3-18.4-0.5-20.7,1.3c-0.8,0.7-4.9,5.9-9.2,11.7c-10.4,13.9-24.1,30.9-36.1,44.9
		c-14.4,16.6-14.1,15.7-4,12.1C1186.2,541.3,1195.8,537.3,1202.8,534.2z"/>
	<path class="st2" d="M1269.5,464.4c-3.4-3.4-0.1-8.3,4.8-7c3.4,0.8,4.4,4.1,2.1,6.7C1274.3,466.4,1271.7,466.5,1269.5,464.4z"/>
	<path class="st2" d="M1368.6,604.8c0.4-0.7,2-3,3.6-5c2.4-3.1,2.7-4.1,1.8-5.8c-1.1-2-0.9-2,5.8-1.4c17.6,1.7,41-9.2,47.1-21.9
		c2.9-5.9,2.7-11.5-0.4-16.1l-2.4-3.6h2.3c3.3,0,10.2,2.6,13.8,5.1c3.8,2.7,6.8,9.1,6.8,14.4c0,17.1-27.5,34.8-51.5,33.3
		c-5.6-0.4-9-1.2-13.6-3.5l-6.1-3l-2.1,4.3c-1.4,2.9-2.8,4.4-4,4.4C1368.5,606,1368.1,605.6,1368.6,604.8z"/>
</g>
<g id="layer103">
	<path class="st3" d="M52.9,1046c-21.4-5.4-36.6-17.2-45.2-35.1c-11.3-23.3-10-52.4,3.6-78.6c10.5-20.3,25.1-42.8,39-60.2
		C62.7,856.7,88.1,831,105,817c15.9-13.2,42.5-33,51.1-38.1c8.1-4.7,20.3-8.9,25.9-8.9c4.5,0,11,2.3,11,3.9c0,0.6-8.9,7.8-19.7,16
		C116.5,832.8,80.6,867.2,58.1,900c-14.7,21.4-22.5,44.9-22.5,67.5c0,12.5,2.2,19.9,7.7,26.1c5.4,6.2,9.7,7.8,22.9,8.2
		c18.9,0.6,33.8-3.2,57.3-14.7c46.5-22.8,101.1-72.4,157.9-143.2c23.8-29.7,38-50.8,49.1-73c11.1-22.1,15.5-36.7,15.5-51.6
		c0-7.2-0.5-9.7-2.5-14.1c-2.1-4.6-3.2-5.6-7.7-7.7c-9-4.1-16.4-5.5-28.9-5.5c-20.2,0-39.3,4.5-75.9,17.8
		c-72.4,26.3-89.2,30.2-110.3,25.7c-9-1.9-15.5-5.6-22.1-12.5c-19.7-20.6-19.5-52.7,0.4-94.7c26.4-55.7,71.5-102.1,125.5-129.4
		c24.9-12.5,44.4-17.9,65-17.9c18.4,0,33,4.9,45.8,15.5c15.5,12.8,22.7,29.4,22.7,52.1c0,21.1-6.8,42-20.4,62.9
		c-11.1,17-31.6,35-46,40.4L286,654l-12.8-6.4c-7-3.5-13.7-7.2-15-8.2l-2.3-1.9l12-10.7c19.5-17.5,33-34.4,36.8-46.3
		c2-6.5,2.9-22.7,1.4-28.2c-1.8-6.6-7-13.4-13-17c-6.7-4-18.4-6.8-24.9-5.9c-23.5,3.4-52,19.2-87.3,48.8
		C163.6,592.6,149.5,609,137,629c-21,33.5-24.3,61.4-9.1,77c5.7,5.9,10.6,7.5,20.6,6.6c10.6-0.8,22-4.5,53.9-17.2
		c47.5-19,66.5-25.1,91.2-29.5c10.7-2,16.4-2.3,33.4-2.3c19.6,0,20.9,0.1,28.5,2.7c13.6,4.5,21.6,11.4,29.4,25
		c6.1,10.7,10,24.2,11.6,40l0.7,6.9l4.7-11c13.9-32.2,29.8-47.8,55.7-54.9c13.1-3.5,26.8-3.6,36.4-0.3c10.8,3.6,17.7,8.2,35.2,23.1
		c2.5,2.1,5,3.3,8.1,3.6c11.8,1.4,33.5-11.4,53.7-31.6c13.5-13.5,25.2-19.1,39.6-19.1c7.4,0,7.4,0,7.4,2.7c0,4.6-3.8,16.5-20,62.8
		c-19.3,55-19.8,56.5-25.5,74.5c-9.8,31.2-13.3,50.1-10.6,58.2c3,9.1,12.2,12.2,22.5,7.5c18.7-8.6,36-39,51.4-90.7
		c2.3-7.4,5.9-19.8,8.2-27.5c9.7-33.4,19.8-44.7,44-49.1c10.7-1.9,22-1.9,22,0.1c0,1.9-6.1,19.5-13.3,38.5c-3,8-7.8,21.7-10.8,30.5
		c-4.9,15.1-5.2,16.6-5.3,26.6c-0.1,9.9,0.1,10.8,2.6,14.7c3.8,5.6,7.2,7.7,12.8,7.6c9.4-0.1,20.5-7.1,37.6-23.6l12.1-11.8l0.7-7.7
		c2.1-24,12.3-56.8,24.8-80.3c15-28.2,32.2-44.2,47.5-44.2c26.4,0,22.2,26.1-12.3,76.9c-4.6,6.7-9.2,13.5-10.4,15
		c-2.9,4-5.4,23.5-4.7,36.8c0.7,11.3,2.4,17.9,6.1,23.6c3.7,5.4,7.7,7.4,15.6,7.3c14.2-0.2,28.9-8.1,45-24.4
		c15.6-15.7,28.2-34.3,42.7-62.9l8.3-16.3l-1.9-2.7c-6-8.4-12.1-24.1-15.2-39.1c-2.6-12.1-3.7-44.5-2-57.3
		c2.5-18.4,8.3-29.8,18.1-35.1c4.6-2.5,6-2.8,12.3-2.4c15.1,0.7,24.7,9.6,29.4,27.1c2.3,8.5,2.3,32.6-0.1,45.7
		c-2.9,16.1-6.5,29.8-12.2,46.5c-3,8.8-5.7,16.7-6,17.6c-0.6,1.9,8.4,9.5,9.7,8.2c0.3-0.5,1.8-4.4,3.3-8.8
		c5.6-17.1,21.4-41.3,37.2-57c26.4-26.2,56.3-39.5,77.1-34.2c20.1,5.2,28.1,22.4,20.7,44.5c-6.5,19.5-22.1,37.6-46.4,53.7
		c-17.2,11.3-34.9,19.1-51.4,22.6c-4.9,1-9.2,2.3-9.6,3c-0.4,0.6-1.5,4.6-2.4,8.8c-7.6,35.2-0.4,52.1,22.2,52.1
		c12.4,0,30-6.4,43-15.7c15-10.7,32.8-30.4,46.7-51.8c12.5-19.1,15-24.5,19.5-42c5.4-20.9,7.1-26.5,12.7-41.4
		c4.3-11.4,5.3-13.1,11.1-19.2c9.6-10.2,18.7-13.6,24.3-9c2,1.6,2.4,2.7,2.2,7.3c-0.2,6.4-2.9,17.2-7.7,31.6c-2,5.7-3,9.9-2.3,9.4
		c30.2-24.4,47.6-36.4,64.9-44.7c18.3-8.8,30.8-11.2,41.6-8c16.9,5.1,12.3,19.1-25.7,77.4c-34.5,53-43.5,70.1-41.7,79.7
		c2.9,15,27.5-2.5,67.6-48.1c20.6-23.4,45.5-54.1,61.5-76c11.2-15.3,14.6-18.9,22-23c8.9-4.9,16-6.9,24.5-6.9
		c11.9-0.1,19.6,3.8,22,11c2.3,6.8,1.1,8.8-18.6,32c-46.4,54.5-70.9,87.4-83.3,111.9c-5.6,11.1-7.7,18.5-6.7,23.8
		c0.8,4.2,2.3,5.6,6.9,6.4c12.6,2,39.4-17.4,80.8-58.7c22.1-21.9,27.4-27.8,37.8-41.9l12.1-16.5v-7.2c0-14.2,6.6-40.6,13.5-54.5
		c9.2-18.2,28.3-40.9,40.6-48.1c10.7-6.4,18.7-4.5,20.5,4.8c1.5,7.9-3,29.2-8.6,40.8c-3.8,8.1-14.4,25.8-27.6,46.2
		c-10.5,16.3-10.7,16.7-9.2,19.3c2.3,3.9,10.2,8.9,15.3,9.7c5.9,0.8,11.3-1.8,26-12.8c23.2-17.2,31.5-21.8,40-21.8
		c5.5,0,10.1,3.6,11.1,8.6c1.9,10.2-9,30.4-28.7,53.5c-3.5,4.1-15.6,16.9-26.9,28.4c-44,45.2-61.4,66.1-70.5,84.7
		c-5.2,10.5-6.4,17.2-4,22.1c2,4.3,5,5.7,12.2,5.7c8.7,0,20.1-3.6,35.1-11c35.6-17.7,66.1-44.7,77.4-68.6c2.9-6,3.3-8,3.4-15.2
		l0.1-8.4l16.2-10.5c12.5-8.2,16.5-10.3,17.4-9.4c1.9,1.9,1.5,24.3-0.5,31.8c-4.4,16.2-12.9,32.7-23.1,45.3
		c-10,12.4-32,28.6-54.7,40.4c-46.7,24.2-87.3,29.4-103.5,13.1c-11.9-11.8-9.7-33.9,6.5-65.9c10.2-20.3,27.4-46.5,45.3-68.9
		c3.8-4.8,6.8-8.9,6.6-9.1c-0.2-0.2-2.7-1.6-5.6-3.1s-7.8-5.2-10.8-8.2c-3.1-3-5.7-5.3-5.9-5.2c-13,18.3-31.9,40.2-51.6,59.9
		c-34,34.1-60.1,52.2-85.9,59.6c-7.6,2.2-10.7,2.5-18.4,2.2c-14.9-0.5-22.3-5.6-26.8-18.3c-4.9-13.7-3.2-31.4,4.9-53.4
		c0.3-0.9-2.7,1.9-6.8,6.2c-20,21.4-40.5,32.7-53.6,29.8c-10.3-2.3-18.4-10-22-21c-1.3-4.1-1.6-7.5-1.2-15.9
		c0.9-18.7,8.6-38.2,31.1-78.7c6.5-11.5,11.7-21.5,11.7-22.2c0-2.4-5.5-1.3-10.5,2.1c-9.4,6.3-37.1,32.4-44.3,41.8
		c-9.6,12.6-20.7,33.1-44.5,83c-6.8,14.2-7.9,15.9-12.3,19.2c-11.1,8.1-21.1,11-23.4,6.7c-1.9-3.6-1-9.9,2.9-21.5
		c2.2-6.4,3.8-11.6,3.5-11.6c-0.2,0-4.1,2.9-8.6,6.4c-32.2,24.8-64.1,37.9-84.8,34.8c-21-3.1-35.4-17.7-39.7-40.3
		c-1.8-9.7-1.3-30.3,1.1-42.9c1.3-6.7,1.2-7.6-0.1-8.5c-0.9-0.5-3.7-2.4-6.3-4.2l-4.7-3.1l-6.4,13.1
		c-26.5,54.6-60.5,95.8-90.4,109.7c-10.4,4.9-16.8,6.3-28.5,6.3c-16.7,0-27.8-4.2-37.4-14.3c-6.1-6.4-9.8-13-12.3-22.2
		c-0.9-3.4-1.8-6.5-2-6.7c-0.1-0.2-5.1,4.3-11,10c-16.3,15.9-27.3,22.6-40.8,25c-13.2,2.3-25-1.9-33-11.8c-2.4-2.9-4.5-5.8-4.8-6.5
		c-0.5-1.6-0.6-1.6-5.3,6.2c-6.8,11.5-16.3,24.5-24.7,34.1c-19.8,22.5-44.5,36.3-67.3,37.6c-24.4,1.5-39.2-7.9-43.8-27.7
		c-2-8.5-2-26.5,0-39.4c2.1-13.3,5.8-28,16.1-63.6c11.3-39.2,14.2-49.4,13.9-49.7c-0.1-0.1-4,2.5-8.7,5.8
		c-4.6,3.3-11.1,7.7-14.4,9.6c-3.3,2-6.2,3.8-6.4,3.9c-0.2,0.2-1.4,5.4-2.6,11.6c-5,24.3-15.6,62.7-23.2,83.8
		c-11.4,31.7-26.2,55-43.6,68.6c-14.3,11.2-27.9,16.1-42.2,15.1c-18.5-1.3-32.1-9.7-38.1-23.4c-7.2-16.1-10-47.5-6.7-73.3
		c0.5-3.9-0.3-2.8-6.5,9.6c-20.1,40.4-47.6,77-86.8,115.4c-39.4,38.6-77.3,66-119.6,86.4c-34.8,16.9-59,23.4-89.3,24.2
		C63,1047.9,59.4,1047.7,52.9,1046z M447.8,880c5.8-2.6,15.9-12.5,22.2-21.6c6.3-9.1,14.8-26.7,19-39.4
		c6.4-19.4,13.2-53.6,14.6-73.4l0.6-9.1l-6.8-0.1c-14.4-0.2-22.2-8.6-24.9-26.9c-0.7-4.1-1-4.5-2.9-3.9
		c-7.2,2.1-16.8,14.1-25.6,31.9c-11.1,22.5-18.4,46.5-23.5,77c-5,30.4-3.9,49,3.6,60C429.1,881.8,438.9,884,447.8,880z
		 M1013.4,695.8c20-7.7,42.2-28.6,48.8-46.1c3.2-8.5,0-13.4-7.5-11.7c-9.9,2.2-26.5,17.2-40,36c-6.2,8.7-13.7,22.4-13.7,25
		C1001,700.3,1002.4,699.9,1013.4,695.8z M836.8,668.5c5.6-13.5,4.6-15.7-1.6-3.7c-3.6,6.8-9.2,20.4-9.2,22.1
		C826,688.4,834.6,673.9,836.8,668.5z M941.4,658.5c7.6-23.6,11.8-49.4,9.6-59.8c-1.5-7.6-5.1-11.7-10.2-11.9
		c-2-0.1-4.4,0.5-5.3,1.2c-4.9,4.1-9.2,21-8.1,32.2c1.3,14.4,9.1,48.8,10.6,47.1C938.4,666.9,939.9,662.9,941.4,658.5z
		 M1472.7,607.1c5.3-8.6,8.3-14.5,8.3-16.3c0-1.5-0.4-2.8-0.9-2.8c-1.8,0-7.1,7.5-11.6,16c-3.9,7.7-11.5,25.3-11.5,26.9
		C1457,631.8,1463.7,621.7,1472.7,607.1z"/>
	<path class="st3" d="M1375.5,592c-5.7-1.4-8.1-2.8-11.3-6.4c-9.7-11,2.6-28.6,25.2-36.1c6.9-2.3,9.3-2.6,17.5-2.3
		c7.3,0.2,10.6,0.8,13.6,2.4c11.4,5.9,11.2,19.3-0.3,29.5C1408.7,589.2,1387.9,595.2,1375.5,592z"/>
	<path class="st3" d="M1172.5,554c2.8-1,9.7-3.5,15.5-5.6c13.6-4.9,44-20.2,55.5-27.9c10.6-7.1,21.7-17.3,25-22.9
		c5.2-8.9,4.1-18.3-2.9-25.2c-4.9-5-11.9-7.4-21.5-7.4l-6.6-0.1l7.7-7.3c9.8-9.2,16.9-12.9,24.8-12.9c6.9,0,12.7,2.6,15.2,6.9
		c4.2,7.1,5.3,14.9,5.3,36.9c0,28.8-2.6,41.9-9.8,49.3c-6.1,6.4-17.3,11.2-30.7,13.2c-5.7,0.9-74.8,5.1-80.4,4.9
		C1168.4,555.9,1169.6,555.1,1172.5,554z M1276.4,464.1c2.3-2.6,1.3-5.9-2.1-6.7c-4.9-1.3-8.2,3.6-4.8,7
		C1271.7,466.5,1274.3,466.4,1276.4,464.1z"/>
	<path class="st3" d="M1174.1,544.1c0.8-1,5.8-7,11.3-13.2c12-14,25.7-31,36.1-44.9c4.3-5.8,8.4-11,9.2-11.7
		c2.3-1.8,14.5-2.6,20.7-1.3c6.7,1.4,11.9,5.9,13,11.1c2.4,12.3-21.8,32-61.6,50.1c-7,3.1-16.6,7.1-21.4,8.8
		C1173.9,545.6,1172.9,545.8,1174.1,544.1z"/>
</g>
</svg>
