<?xml version="1.0" encoding="utf-8"?>
<!-- Generator: Adobe Illustrator 20.1.0, SVG Export Plug-In . SVG Version: 6.00 Build 0)  -->
<svg version="1.1"
	 id="svg2" inkscape:version="0.91 r13725" sodipodi:docname="Asset 4.svg" xmlns:cc="http://creativecommons.org/ns#" xmlns:dc="http://purl.org/dc/elements/1.1/" xmlns:inkscape="http://www.inkscape.org/namespaces/inkscape" xmlns:rdf="http://www.w3.org/1999/02/22-rdf-syntax-ns#" xmlns:sodipodi="http://sodipodi.sourceforge.net/DTD/sodipodi-0.dtd" xmlns:svg="http://www.w3.org/2000/svg"
	 xmlns="http://www.w3.org/2000/svg" xmlns:xlink="http://www.w3.org/1999/xlink" x="0px" y="0px" viewBox="0 0 407.8 314.5"
	 style="enable-background:new 0 0 407.8 314.5;" xml:space="preserve">
<style type="text/css">
	.st0{fill:#FFFFFF;}
	.st1{fill:#FFD286;}
	.st2{fill:#F4BD6C;}
	.st3{fill:url(#path27_1_);}
	.st4{fill:#DDA254;}
	.st5{fill:#B1C2B3;}
	.st6{fill:#FFFAD7;}
	.st7{fill:none;stroke:#A73E5C;stroke-width:1.4192;stroke-linecap:round;stroke-linejoin:round;}
	.st8{fill:#A73E5C;}
	.st9{fill:none;stroke:#A73E5C;stroke-width:0.9994;stroke-miterlimit:10;}
	.st10{fill:#E2D69F;}
	.st11{opacity:0.44;fill:#B3732E;enable-background:new    ;}
	.st12{fill:#EB9337;}
	.st13{opacity:0.16;fill:#FFFFFF;enable-background:new    ;}
	.st14{fill:#EC983D;}
	.st15{fill:#E9F2D7;}
	.st16{fill:url(#polygon87_1_);}
	.st17{fill:url(#polygon89_1_);}
</style>
<sodipodi:namedview  bordercolor="#666666" borderopacity="1" gridtolerance="10" guidetolerance="10" id="namedview107" inkscape:current-layer="svg2" inkscape:cx="203.89" inkscape:cy="157.25" inkscape:pageopacity="0" inkscape:pageshadow="2" inkscape:window-height="480" inkscape:window-maximized="0" inkscape:window-width="640" inkscape:window-x="0" inkscape:window-y="0" inkscape:zoom="0.75039746" objecttolerance="10" pagecolor="#ffffff" showgrid="false">
	</sodipodi:namedview>
<title  id="title15">Asset 4</title>
<g id="g17">
	<g id="Layer_2">
		<g id="OBJECTS">
			<path id="path21" class="st0" d="M10.7,56.3c0,0-23,17.7-1,55.8L10.7,56.3z"/>
			<polygon id="polygon23" class="st1" points="8.4,41.9 8.4,176.9 151.3,142.9 151.3,0 			"/>
			<polygon id="polygon25" class="st2" points="151.3,0 250.2,53.9 250.2,186.9 151.3,142.9 			"/>
			
				<linearGradient id="path27_1_" gradientUnits="userSpaceOnUse" x1="632.8934" y1="280.942" x2="448.3301" y2="131.669" gradientTransform="matrix(-0.9202 0 0 -1 783.002 316)">
				<stop  offset="0" style="stop-color:#000000;stop-opacity:0.1"/>
				<stop  offset="1" style="stop-color:#000000;stop-opacity:0"/>
			</linearGradient>
			<path id="path27" class="st3" d="M248.2,37.8l150.3,96.2v82.5L208.4,117C208.4,117,192.8,41.1,248.2,37.8z"/>
			<polygon id="polygon29" class="st4" points="250.2,186.9 127.3,214.9 8.4,176.9 151.3,142.9 			"/>
			<path id="path31" class="st0" d="M221.7,109.7c0,0-0.5,10.7-9.5,10c-9-0.7-23.5-41.5-23.5-68.5s8.7-34.2,28-29.5
				s108.6,67,108.6,67s-7,16-32.2,12.7c0,0-7.2,16-32.5,11.2c0,0-10.5,9.9-21.5,5.7C232.1,115.8,221.7,109.7,221.7,109.7z"/>
			<path id="path33" class="st5" d="M293.1,101.4l-42.5-24.3l40.6,27.2C292,103.5,292.6,102.5,293.1,101.4z"/>
			<polygon id="polygon35" class="st5" points="260.6,112.7 232.1,95.6 259,114.1 			"/>
			<path id="path37" class="st5" d="M221.7,109.7c-3.5-2-6.7-4.4-9.6-7.1c0,0,2.4,5,9.3,9.1L221.7,109.7z"/>
			<polygon id="polygon39" class="st6" points="89.2,18.2 89.2,157.7 194.6,199.6 166.7,205.9 56.4,165.5 56.4,27.8 			"/>
			<line id="line41" class="st7" x1="141.4" y1="117.8" x2="132.9" y2="119.8"/>
			<line id="line43" class="st7" x1="128.6" y1="120.7" x2="123.4" y2="121.9"/>
			<line id="line45" class="st7" x1="119.6" y1="122.8" x2="100.9" y2="127.1"/>
			<line id="line47" class="st7" x1="97" y1="128" x2="95.2" y2="128.4"/>
			<line id="line49" class="st7" x1="141.6" y1="123.4" x2="125.6" y2="127.1"/>
			<line id="line51" class="st7" x1="121.6" y1="128" x2="118.9" y2="128.6"/>
			<line id="line53" class="st7" x1="112.8" y1="130" x2="95.4" y2="134"/>
			<line id="line55" class="st7" x1="141.8" y1="129" x2="130.1" y2="131.7"/>
			<line id="line57" class="st7" x1="123.1" y1="133.3" x2="117" y2="134.7"/>
			<line id="line59" class="st7" x1="113" y1="135.6" x2="111.1" y2="136"/>
			<line id="line61" class="st7" x1="107.1" y1="136.9" x2="95.6" y2="139.5"/>
			<line id="line63" class="st7" x1="142" y1="134.6" x2="107.3" y2="142.5"/>
			<line id="line65" class="st7" x1="104.5" y1="143.2" x2="95.8" y2="145.1"/>
			<polygon id="polygon67" class="st8" points="38,43.4 43,50.1 40,50.9 40,61.6 36,62.7 36,52 33,52.9 			"/>
			<polygon id="polygon69" class="st8" points="25.7,46.7 30.7,53.5 27.7,54.3 27.7,65 23.8,66.1 23.8,55.4 20.8,56.2 			"/>
			<polygon id="polygon71" class="st8" points="23.8,69.7 40.1,65.2 40.1,62.7 23.8,67.2 			"/>
			<polygon id="polygon73" class="st9" points="17.4,74.8 46.3,66.7 46.3,37.8 17.4,45.8 			"/>
			<polygon id="polygon75" class="st10" points="194.6,199.6 89.2,157.7 56.4,165.5 166.7,205.9 			"/>
			<path id="path77" class="st11" d="M14.6,176.9l136.7-31.5l92.7,41.5c0,0-83.8-25.8-119.3-24.8s-75.9,13-81.7,22.3L14.6,176.9z"/>
			<path id="path79" class="st12" d="M213,120.7c0,0,8.7,1.9,9.2-9.8c0,0,10.4,7.4,18.5,9.2c8.1,1.8,8.5-0.4,8.5-0.4v9.6
				c0,0-8.7,3-24-7.8C225.3,121.5,221.7,126.4,213,120.7z"/>
			<path id="path81" class="st13" d="M148.1,3.1L10.7,43.4v76.4c0,0,53.9-77.3,137.4-97L148.1,3.1z"/>
			<path id="path83" class="st14" d="M155.1,141.4V5.5l33.6,19c0,0-17-1.8-22,45.3s-5,74.4-5,74.4L155.1,141.4z"/>
			<path id="path85" class="st15" d="M252.5,75.7l41.6,23.7c0,0,19.7,2.9,28.3-10.4l-13.2-8.7c0,0,2.4,9.4-8.2,11.4
				S252.5,75.7,252.5,75.7z"/>
			
				<linearGradient id="polygon87_1_" gradientUnits="userSpaceOnUse" x1="687.8466" y1="179.1848" x2="471.8564" y2="4.4792" gradientTransform="matrix(-0.9202 0 0 -1 783.002 316)">
				<stop  offset="0" style="stop-color:#000000;stop-opacity:0.1"/>
				<stop  offset="1" style="stop-color:#000000;stop-opacity:0"/>
			</linearGradient>
			<polygon id="polygon87" class="st16" points="127.3,214.9 250.2,186.9 398.5,257.1 407.5,314.4 			"/>
			
				<linearGradient id="polygon89_1_" gradientUnits="userSpaceOnUse" x1="598.3643" y1="202.5473" x2="454.0284" y2="85.7974" gradientTransform="matrix(-0.9202 0 0 -1 783.002 316)">
				<stop  offset="0" style="stop-color:#000000;stop-opacity:0.1"/>
				<stop  offset="1" style="stop-color:#000000;stop-opacity:0"/>
			</linearGradient>
			<polygon id="polygon89" class="st17" points="250.2,121.3 250.2,186.9 389.2,252.7 386.4,191 			"/>
			<path id="path91" class="st15" d="M287.5,104.8c0,0-11.4,10.8-26.8,6l-27.8-17.4c0,0,28.1,18.4,45.7,5.5L287.5,104.8z"/>
			<path id="path93" class="st15" d="M255.5,114.1c0,0-6.5,4.7-13.3,2.8c-6.8-1.8-21.3-9-30.1-16.5c0,0,21.8,13.3,34.3,7.7
				L255.5,114.1z"/>
			<path id="path95" class="st15" d="M210.8,103.8c0,0,4.9,6.7,9,8.2c0,0-1.3,6.9-7.7,5.9c-6.4-1-19-32.6-20.9-51.4
				c0,0,9.6,35.7,16.6,41.2C214.8,113.3,210.8,103.8,210.8,103.8z"/>
			<path id="path97" class="st15" d="M287.5,104.8l-37.3-25.4l33.6,28.1C285.3,107,286.5,106.1,287.5,104.8z"/>
			<polygon id="polygon99" class="st15" points="231.1,97.9 255.5,114.1 253,115.5 			"/>
			<path id="path101" class="st15" d="M210.8,103.8c0,0,5.6,7.2,9,8.2c0,0,0.1,1.1-1.5,3.4C218.3,115.5,211.1,110.6,210.8,103.8z"/>
			<path id="path103" class="st15" d="M7.1,70.8v33.3c0,0-6-11.2-5.8-21.8C1.2,82.3,5.7,81.9,7.1,70.8z"/>
			<path id="path105" class="st15" d="M6,84.7v14.5c-1.3-3.1-2.4-6.4-3.2-9.7C2.8,89.5,5,88.3,6,84.7z"/>
		</g>
	</g>
</g>
</svg>
