<?xml version="1.0" encoding="iso-8859-1"?>
<!-- Generator: Adobe Illustrator 19.0.0, SVG Export Plug-In . SVG Version: 6.00 Build 0)  -->
<svg xmlns="http://www.w3.org/2000/svg" xmlns:xlink="http://www.w3.org/1999/xlink" version="1.1" id="Layer_1" x="0px" y="0px" viewBox="0 0 426.667 426.667" style="enable-background:new 0 0 426.667 426.667;" xml:space="preserve" width="512px" height="512px">
<g>
	<g>
		<rect x="106.667" y="181.333" width="42.667" height="42.667" fill="#ff181f"/>
	</g>
</g>
<g>
	<g>
		<rect x="192" y="181.333" width="42.667" height="42.667" fill="#ff181f"/>
	</g>
</g>
<g>
	<g>
		<rect x="277.333" y="181.333" width="42.667" height="42.667" fill="#ff181f"/>
	</g>
</g>
<g>
	<g>
		<rect x="106.667" y="266.667" width="42.667" height="42.667" fill="#ff181f"/>
	</g>
</g>
<g>
	<g>
		<rect x="192" y="266.667" width="42.667" height="42.667" fill="#ff181f"/>
	</g>
</g>
<g>
	<g>
		<rect x="277.333" y="266.667" width="42.667" height="42.667" fill="#ff181f"/>
	</g>
</g>
<g>
	<g>
		<path d="M362.667,53.333V10.667H320v42.667h-42.667V10.667h-42.667v42.667H192V10.667h-42.667v42.667h-42.667V10.667H64v42.667H0    V416h426.667V53.333H362.667z M384,373.333H42.667V96H64v21.333h42.667V96h42.667v21.333H192V96h42.667v21.333h42.667V96H320    v21.333h42.667V96H384V373.333z" fill="#ff181f"/>
	</g>
</g>
<g>
</g>
<g>
</g>
<g>
</g>
<g>
</g>
<g>
</g>
<g>
</g>
<g>
</g>
<g>
</g>
<g>
</g>
<g>
</g>
<g>
</g>
<g>
</g>
<g>
</g>
<g>
</g>
<g>
</g>
</svg>
